<?xml version="1.0" encoding="UTF-8" standalone="no"?>
<svg
   xmlns:dc="http://purl.org/dc/elements/1.1/"
   xmlns:cc="http://creativecommons.org/ns#"
   xmlns:rdf="http://www.w3.org/1999/02/22-rdf-syntax-ns#"
   xmlns:svg="http://www.w3.org/2000/svg"
   xmlns="http://www.w3.org/2000/svg"
   xmlns:sodipodi="http://sodipodi.sourceforge.net/DTD/sodipodi-0.dtd"
   xmlns:inkscape="http://www.inkscape.org/namespaces/inkscape"
   width="210mm"
   height="148mm"
   viewBox="0 0 210 148"
   version="1.1"
   id="svg1155"
   sodipodi:docname="wouradventurecontinues1.svg"
   inkscape:version="1.0 (4035a4f, 2020-05-01)">
  <sodipodi:namedview
     inkscape:document-rotation="0"
     pagecolor="#ffffff"
     bordercolor="#666666"
     borderopacity="1"
     objecttolerance="10"
     gridtolerance="10"
     guidetolerance="10"
     inkscape:pageopacity="0"
     inkscape:pageshadow="2"
     inkscape:window-width="1680"
     inkscape:window-height="907"
     id="namedview906"
     showgrid="false"
     inkscape:pagecheckerboard="true"
     inkscape:zoom="0.72319444"
     inkscape:cx="405.14691"
     inkscape:cy="355.14627"
     inkscape:window-x="0"
     inkscape:window-y="25"
     inkscape:window-maximized="1"
     inkscape:current-layer="svg1155" />
  <defs
     id="defs1149" />
  <metadata
     id="metadata1152">
    <rdf:RDF>
      <cc:Work
         rdf:about="">
        <dc:format>image/svg+xml</dc:format>
        <dc:type
           rdf:resource="http://purl.org/dc/dcmitype/StillImage" />
        <dc:title />
      </cc:Work>
    </rdf:RDF>
  </metadata>
  <g
     id="layer1"
     inkscape:export-filename="/Users/nfg31/Desktop/wadventurecontinues.png"
     inkscape:export-xdpi="200"
     inkscape:export-ydpi="200">
    <g
       style="font-size:7.77288px;line-height:1.25;font-family:'The Heart Maze Demo';-inkscape-font-specification:'The Heart Maze Demo';fill:#ffffff;stroke-width:0.194322"
       id="text867-5"
       transform="scale(0.98058163,1.0198029)"
       aria-label="OURCONTINUES">
      <path
         id="path922"
         style="font-style:normal;font-variant:normal;font-weight:normal;font-stretch:normal;font-family:Damascus;-inkscape-font-specification:Damascus;text-align:center;text-anchor:middle;fill:#ffffff;stroke-width:0.194322"
         d="m 103.25947,45.284184 q 0.34538,0.379535 0.52755,0.929861 0.18598,0.550326 0.18598,1.24867 0,0.698345 -0.18977,1.252466 -0.18597,0.550326 -0.52376,0.918476 -0.34917,0.38333 -0.82739,0.576893 -0.47442,0.193563 -1.08547,0.193563 -0.59587,0 -1.08547,-0.197358 -0.485803,-0.197359 -0.827385,-0.573098 -0.341582,-0.37574 -0.527554,-0.922271 -0.182177,-0.54653 -0.182177,-1.248671 0,-0.690754 0.182177,-1.237284 0.182177,-0.550326 0.531349,-0.941247 0.333991,-0.371945 0.82739,-0.569303 0.49719,-0.197358 1.08167,-0.197358 0.60726,0 1.08927,0.201153 0.4858,0.197359 0.82359,0.565508 z m -0.0683,2.178531 q 0,-1.100651 -0.49339,-1.696522 -0.4934,-0.599665 -1.34735,-0.599665 -0.86155,0 -1.354943,0.599665 -0.4896,0.595871 -0.4896,1.696522 0,1.112038 0.500983,1.704113 0.50099,0.58828 1.34356,0.58828 0.84257,0 1.33976,-0.58828 0.50098,-0.592075 0.50098,-1.704113 z" />
      <path
         id="path924"
         style="font-style:normal;font-variant:normal;font-weight:normal;font-stretch:normal;font-family:Damascus;-inkscape-font-specification:Damascus;text-align:center;text-anchor:middle;fill:#ffffff;stroke-width:0.194322"
         d="m 109.41933,48.016837 q 0,0.614847 -0.13664,1.074084 -0.13283,0.455442 -0.44026,0.759071 -0.29224,0.288446 -0.68316,0.421284 -0.39092,0.132837 -0.91089,0.132837 -0.53135,0 -0.92606,-0.140428 -0.39472,-0.140428 -0.66419,-0.413693 -0.30742,-0.311219 -0.44405,-0.75148 -0.13284,-0.440261 -0.13284,-1.081675 v -3.381658 h 0.75148 v 3.419611 q 0,0.459238 0.0607,0.724912 0.0645,0.265675 0.21254,0.48201 0.167,0.246698 0.45165,0.371945 0.28845,0.125246 0.69075,0.125246 0.40611,0 0.69076,-0.121451 0.28465,-0.125247 0.45544,-0.37574 0.14802,-0.216335 0.20874,-0.493396 0.0645,-0.280856 0.0645,-0.694549 v -3.438588 h 0.75148 z" />
      <path
         id="path926"
         style="font-style:normal;font-variant:normal;font-weight:normal;font-stretch:normal;font-family:Damascus;-inkscape-font-specification:Damascus;text-align:center;text-anchor:middle;fill:#ffffff;stroke-width:0.194322"
         d="m 115.53364,50.286457 h -0.97541 l -1.89008,-2.246848 h -1.05891 v 2.246848 h -0.75148 v -5.651278 h 1.58267 q 0.51237,0 0.85395,0.06832 0.34158,0.06452 0.61485,0.235312 0.30742,0.193563 0.47821,0.4896 0.17459,0.292242 0.17459,0.743889 0,0.611052 -0.30743,1.024745 -0.30742,0.409898 -0.84636,0.618642 z m -1.75725,-4.061026 q 0,-0.242903 -0.0873,-0.428875 -0.0835,-0.189767 -0.28086,-0.318809 -0.1632,-0.110066 -0.38713,-0.151814 -0.22392,-0.04554 -0.52755,-0.04554 h -0.88432 v 2.132988 h 0.75907 q 0.35677,0 0.62244,-0.06073 0.26568,-0.06452 0.45165,-0.235312 0.17079,-0.159404 0.25049,-0.364353 0.0835,-0.208745 0.0835,-0.527554 z" />
      <path
         id="path928"
         style="font-style:normal;font-variant:normal;font-weight:normal;font-stretch:normal;font-family:Damascus;-inkscape-font-specification:Damascus;text-align:center;text-anchor:middle;fill:#ffffff;stroke-width:0.194322"
         d="m 88.427235,94.314254 q -0.208744,0.09109 -0.379535,0.17079 -0.166995,0.0797 -0.440261,0.166996 -0.231516,0.07211 -0.504781,0.121451 -0.26947,0.05313 -0.595871,0.05313 -0.614846,0 -1.119628,-0.170791 -0.500987,-0.174586 -0.872931,-0.542735 -0.364354,-0.360558 -0.569303,-0.91468 -0.204949,-0.557916 -0.204949,-1.294215 0,-0.698344 0.197358,-1.24867 0.197359,-0.550326 0.569303,-0.929861 0.360559,-0.36815 0.869136,-0.561712 0.512372,-0.193563 1.13481,-0.193563 0.455442,0 0.907089,0.110065 0.455442,0.110065 1.009563,0.387126 v 0.891907 h -0.05693 q -0.466828,-0.390921 -0.926066,-0.569302 -0.459237,-0.178382 -0.982996,-0.178382 -0.428874,0 -0.774251,0.140428 -0.341582,0.136633 -0.611052,0.428875 -0.261879,0.284651 -0.409898,0.721117 -0.144223,0.43267 -0.144223,1.001972 0,0.595871 0.159404,1.024745 0.1632,0.428875 0.417489,0.698345 0.265675,0.280856 0.618642,0.417489 0.356763,0.132837 0.75148,0.132837 0.542735,0 1.017154,-0.185972 0.474419,-0.185972 0.888112,-0.557917 h 0.05313 z" />
      <path
         id="path930"
         style="font-style:normal;font-variant:normal;font-weight:normal;font-stretch:normal;font-family:Damascus;-inkscape-font-specification:Damascus;text-align:center;text-anchor:middle;fill:#ffffff;stroke-width:0.194322"
         d="m 93.710365,89.721878 q 0.345377,0.379535 0.527554,0.929861 0.185972,0.550326 0.185972,1.248671 0,0.698345 -0.189767,1.252466 -0.185973,0.550326 -0.523759,0.918475 -0.349172,0.383331 -0.827387,0.576894 -0.474419,0.193563 -1.08547,0.193563 -0.59587,0 -1.085471,-0.197359 -0.485805,-0.197358 -0.827386,-0.573098 -0.341582,-0.37574 -0.527554,-0.92227 -0.182177,-0.546531 -0.182177,-1.248671 0,-0.690754 0.182177,-1.237285 0.182177,-0.550326 0.531349,-0.941247 0.333991,-0.371944 0.827387,-0.569303 0.497191,-0.197358 1.081675,-0.197358 0.607256,0 1.089266,0.201154 0.485805,0.197358 0.823591,0.565507 z m -0.06832,2.178532 q 0,-1.100652 -0.493396,-1.696522 -0.493396,-0.599666 -1.34735,-0.599666 -0.861545,0 -1.35494,0.599666 -0.489601,0.59587 -0.489601,1.696522 0,1.112038 0.500987,1.704113 0.500986,0.588279 1.343554,0.588279 0.842568,0 1.339759,-0.588279 0.500987,-0.592075 0.500987,-1.704113 z" />
      <path
         id="path932"
         style="font-style:normal;font-variant:normal;font-weight:normal;font-stretch:normal;font-family:Damascus;-inkscape-font-specification:Damascus;text-align:center;text-anchor:middle;fill:#ffffff;stroke-width:0.194322"
         d="M 99.927151,94.724152 H 98.99729 l -2.679518,-5.055409 v 5.055409 h -0.70214 v -5.651279 h 1.165173 l 2.444206,4.615148 v -4.615148 h 0.70214 z" />
      <path
         id="path934"
         style="font-style:normal;font-variant:normal;font-weight:normal;font-stretch:normal;font-family:Damascus;-inkscape-font-specification:Damascus;text-align:center;text-anchor:middle;fill:#ffffff;stroke-width:0.194322"
         d="m 105.46077,89.740855 h -2.01912 v 4.983297 h -0.75148 v -4.983297 h -2.01913 v -0.667982 h 4.78973 z" />
      <path
         id="path936"
         style="font-style:normal;font-variant:normal;font-weight:normal;font-stretch:normal;font-family:Damascus;-inkscape-font-specification:Damascus;text-align:center;text-anchor:middle;fill:#ffffff;stroke-width:0.194322"
         d="m 108.21999,94.724152 h -2.23166 v -0.576894 h 0.74009 v -4.497491 h -0.74009 v -0.576894 h 2.23166 v 0.576894 h -0.74009 v 4.497491 h 0.74009 z" />
      <path
         id="path938"
         style="font-style:normal;font-variant:normal;font-weight:normal;font-stretch:normal;font-family:Damascus;-inkscape-font-specification:Damascus;text-align:center;text-anchor:middle;fill:#ffffff;stroke-width:0.194322"
         d="m 113.81814,94.724152 h -0.92986 l -2.67952,-5.055409 v 5.055409 h -0.70214 v -5.651279 h 1.16517 l 2.44421,4.615148 v -4.615148 h 0.70214 z" />
      <path
         id="path940"
         style="font-style:normal;font-variant:normal;font-weight:normal;font-stretch:normal;font-family:Damascus;-inkscape-font-specification:Damascus;text-align:center;text-anchor:middle;fill:#ffffff;stroke-width:0.194322"
         d="m 119.57569,92.454531 q 0,0.614847 -0.13664,1.074085 -0.13283,0.455442 -0.44026,0.75907 -0.29224,0.288447 -0.68316,0.421284 -0.39092,0.132838 -0.91088,0.132838 -0.53135,0 -0.92607,-0.140428 -0.39472,-0.140429 -0.66419,-0.413694 -0.30742,-0.311219 -0.44405,-0.751479 -0.13284,-0.440261 -0.13284,-1.081676 v -3.381658 h 0.75148 v 3.419612 q 0,0.459237 0.0607,0.724912 0.0645,0.265675 0.21254,0.48201 0.167,0.246698 0.45165,0.371944 0.28845,0.125247 0.69076,0.125247 0.4061,0 0.69075,-0.121452 0.28465,-0.125246 0.45544,-0.375739 0.14802,-0.216335 0.20875,-0.493396 0.0645,-0.280856 0.0645,-0.694549 v -3.438589 h 0.75148 z" />
      <path
         id="path942"
         style="font-style:normal;font-variant:normal;font-weight:normal;font-stretch:normal;font-family:Damascus;-inkscape-font-specification:Damascus;text-align:center;text-anchor:middle;fill:#ffffff;stroke-width:0.194322"
         d="m 124.73737,94.724152 h -3.72324 v -5.651279 h 3.72324 v 0.667982 h -2.97176 v 1.548503 h 2.97176 v 0.667982 h -2.97176 v 2.09883 h 2.97176 z" />
      <path
         id="path944"
         style="font-style:normal;font-variant:normal;font-weight:normal;font-stretch:normal;font-family:Damascus;-inkscape-font-specification:Damascus;text-align:center;text-anchor:middle;fill:#ffffff;stroke-width:0.194322"
         d="m 130.03947,93.111127 q 0,0.330196 -0.15561,0.652801 -0.15181,0.322605 -0.42887,0.54653 -0.30363,0.242903 -0.70973,0.379535 -0.40231,0.136633 -0.97161,0.136633 -0.61106,0 -1.10066,-0.11386 -0.4858,-0.113861 -0.99058,-0.337787 v -0.941247 h 0.0531 q 0.42888,0.356763 0.99059,0.550326 0.56171,0.193563 1.05511,0.193563 0.69834,0 1.08547,-0.261879 0.39092,-0.26188 0.39092,-0.698345 0,-0.37574 -0.18597,-0.554121 -0.18218,-0.178382 -0.55792,-0.277061 -0.28465,-0.07591 -0.61864,-0.125247 -0.3302,-0.04934 -0.70214,-0.125246 -0.75148,-0.159405 -1.11584,-0.542735 -0.36055,-0.387126 -0.36055,-1.005769 0,-0.70973 0.59966,-1.161377 0.59967,-0.455442 1.52194,-0.455442 0.59587,0 1.09306,0.11386 0.49719,0.113861 0.88052,0.280856 v 0.888112 h -0.0531 q -0.3226,-0.273265 -0.85015,-0.451646 -0.52376,-0.182177 -1.07409,-0.182177 -0.60346,0 -0.97161,0.250493 -0.36435,0.250493 -0.36435,0.64521 0,0.352967 0.18217,0.554121 0.18218,0.201154 0.64142,0.307423 0.2429,0.05313 0.69075,0.129042 0.44785,0.07591 0.75907,0.15561 0.63003,0.166995 0.94884,0.504782 0.31881,0.337786 0.31881,0.945042 z" />
    </g>
    <g
       style="font-size:70.5556px;line-height:1.25;font-family:LovingYou;-inkscape-font-specification:LovingYou;fill:#ffffff;stroke-width:1.34378"
       id="text849-4"
       transform="scale(1.0782365,0.92744031)"
       aria-label="Adventure">
      <path
         id="path947"
         style="font-size:70.5556px;fill:#ffffff;stroke-width:1.34378"
         d="m 43.838113,76.132542 q 2.681113,-1.411112 5.644448,-2.39889 0.987779,-0.282223 1.058334,-0.49389 0.352778,-1.552223 1.199445,-6.773338 0.917223,-5.715003 0.635001,-5.997226 -0.141111,-0.141111 -1.340557,0.917223 -2.116668,2.046113 -5.221114,8.255006 -2.046113,4.092225 -2.751669,6.138337 0,0.141111 -0.211666,0.493889 -0.141112,0.352778 -0.07056,0.352778 0.07056,0 1.058334,-0.493889 z m -8.325561,23.918348 q -0.352778,-0.282221 -0.352778,-1.269999 0,-2.116668 1.058334,-6.632227 1.058334,-4.586114 2.751668,-9.595562 0.564445,-1.693334 0.564445,-1.693334 0,-0.07056 -0.493889,0.282222 -0.493889,0.352778 -1.12889,0.846667 -0.635,0.423334 -1.128889,0.776112 -3.810003,2.822224 -5.78556,5.362226 -0.352778,0.493889 -0.493889,0.564444 -0.282222,0.07056 -0.564445,-0.07055 -0.282222,-0.141111 -0.352778,-0.493889 -0.141111,-0.846668 1.693335,-2.89278 1.834445,-2.046113 4.727225,-4.162781 1.76389,-1.340556 3.668891,-2.540001 0.917223,-0.635001 0.987779,-0.846668 0.141111,-0.282222 0.705556,-1.693334 3.245558,-8.255006 6.843893,-13.617231 2.046113,-3.033891 3.104447,-3.951114 1.199445,-1.058334 2.328335,-0.846667 0.705556,0.07055 1.270001,0.705556 0.917222,0.987778 0.705556,3.598335 -0.141112,2.610558 -1.340557,9.031117 -0.282222,1.693335 -0.282222,1.763891 0,0 0.776111,-0.141112 2.963336,-0.352778 5.291671,0 0.987778,0.211667 1.552223,0.705556 0.564445,0.423334 0.282222,0.846668 -0.352778,0.564444 -2.116668,0.282222 -1.76389,-0.282222 -3.52778,-0.07056 -2.39889,0.141112 -2.610557,0.352778 -0.07056,0.07056 -0.423334,2.469447 -0.352778,2.328334 -0.493889,3.951113 -0.635,6.914449 0.282222,12.982231 0.211667,1.12889 0.282223,1.340557 0.07055,0.211667 0.07055,0.705556 0,1.834445 -1.481667,1.834445 -0.635001,0 -1.199446,-0.635 -0.423333,-0.493889 -0.635,-1.411112 -0.987778,-4.021669 -0.776112,-11.359452 0.141112,-3.880558 0.705556,-7.690561 0.141112,-1.199445 0.141112,-1.270001 0,0 -0.07056,0 0,0 -0.211667,0.07056 -0.141111,0 -0.423333,0.141111 -0.282223,0.07056 -0.776112,0.211667 -3.386669,1.270001 -6.138337,2.963335 -0.846668,0.493889 -0.917223,0.776112 -2.25778,6.42056 -3.739447,12.34723 -0.917223,3.598336 -1.270001,6.561671 -0.141111,0.917223 -0.211667,1.12889 -0.282222,0.635001 -0.846667,0.282221 z" />
      <path
         id="path949"
         style="font-size:70.5556px;fill:#ffffff;stroke-width:1.34378"
         d="m 62.664331,84.881437 q 1.058334,-1.12889 2.187224,-2.681113 1.481668,-2.116668 2.328335,-3.810003 -0.705556,-5.221114 -2.963335,-0.211666 -1.12889,2.540001 -1.693335,4.938892 -0.564445,1.905001 -0.564445,2.257779 0,0.141111 0.705556,-0.493889 z m 5.78556,11.782786 q -1.058334,-0.211667 -1.834446,-1.12889 -0.705556,-0.987778 -1.199445,-3.245558 -0.564445,-2.89278 0.564445,-8.537228 0.141111,-0.846667 0.141111,-0.917223 0,0 -0.141111,0.141112 -0.07056,0.141111 -0.282223,0.423333 -0.141111,0.211667 -0.352778,0.493889 -1.975557,3.033891 -2.963335,3.880559 -1.058334,0.987778 -1.905001,0.776111 -1.12889,-0.211667 -1.552224,-1.128889 -0.493889,-1.12889 -0.07055,-3.245558 1.199445,-5.432782 3.386669,-8.678339 1.199445,-1.905002 2.469446,-2.469446 0.423333,-0.211667 1.058334,-0.282223 0.917223,-0.07055 1.552223,0.493889 0.705556,0.49389 0.987779,1.340557 l 0.141111,0.352778 q 2.046112,-5.573893 3.598336,-8.607784 0.846667,-1.76389 1.834445,-3.245557 2.046113,-3.033891 3.175002,-3.033891 0.352778,0 0.49389,0.211666 0.211666,0.211667 0.211666,0.635001 0,0.705556 -0.493889,1.834446 -0.282222,0.493889 -1.270001,2.681112 -0.987778,2.187224 -1.552223,3.457225 -1.622779,3.457225 -3.245558,8.255006 -1.693334,4.868336 -2.257779,8.81945 -0.423334,2.469446 -0.423334,5.080003 0,2.25778 0.211667,3.104447 0.282223,1.058334 0.635001,1.270001 0.635,0.282222 0.635,0.635 0,0.282223 -0.493889,0.493889 -0.493889,0.211667 -1.058334,0.141112 z" />
      <path
         id="path951"
         style="font-size:70.5556px;fill:#ffffff;stroke-width:1.34378"
         d="m 75.852716,87.491994 q -0.846667,-0.423333 -1.340557,-1.481667 -0.352778,-0.776112 -0.423333,-1.340557 -0.07056,-0.564445 -0.07056,-2.257779 0,-2.328335 0.352778,-4.868337 0.352778,-2.681113 0.423334,-4.16278 0,-1.76389 -0.211667,-1.834446 -0.07056,-0.07056 -0.564445,0.423334 -0.423333,0.423333 -0.776111,1.199445 -0.846668,1.693334 -0.635001,2.822224 0.141111,0.776112 -0.635,0.846667 -0.776112,0 -0.917223,-0.776111 -0.282222,-0.776112 0.141111,-2.116669 0.423334,-1.552223 1.270001,-2.681112 1.199445,-1.552224 2.610557,-1.622779 0.564445,0 0.987779,0.141111 1.481667,0.705556 1.834445,3.668891 0.141112,1.481668 -0.211666,3.880558 -0.423334,2.89278 -0.423334,4.868337 0,2.963335 0.211667,2.89278 0.141111,-0.141112 0.635,-1.411112 0.493889,-1.12889 1.411112,-4.303892 1.199446,-4.445003 2.046113,-6.208893 1.058334,-2.25778 2.892779,-4.092225 1.834446,-1.905001 3.457225,-2.398891 0.705556,-0.211667 1.340557,-0.07055 0.635,0.07055 0.917222,0.493889 0.352778,0.352778 0.141112,0.776112 -0.211667,0.423333 -0.846668,0.282222 -1.058334,-0.211667 -2.116668,0.493889 -2.963335,1.834446 -4.515558,5.150559 -0.846668,1.834446 -1.905002,5.856115 -1.693334,6.279449 -2.751668,7.337783 -0.635001,0.705556 -1.481668,0.705556 -0.493889,0 -0.846667,-0.211667 z" />
      <path
         id="path953"
         style="font-size:70.5556px;fill:#ffffff;stroke-width:1.34378"
         d="m 87.300364,79.942545 q 1.058334,-0.705556 1.975557,-1.622779 1.975557,-1.975557 1.975557,-3.598336 0,-0.423334 -0.141111,-0.493889 -0.141111,-0.07056 -0.635,0.141111 -0.564445,0.282222 -1.481668,1.411112 -1.058334,1.340557 -1.622779,2.398891 -0.776112,1.552223 -0.776112,2.046112 0,0.07056 0.705556,-0.282222 z m -3.457224,5.362226 q -0.705556,-1.340557 -0.705556,-3.245558 0,-3.668892 2.257779,-6.985005 1.199445,-1.693334 2.963335,-2.540002 1.199446,-0.564444 2.187224,-0.493889 1.058334,0.07056 1.76389,0.776112 0.423334,0.423333 0.564445,0.917223 0.423334,1.27 -0.211667,2.822224 -0.564445,1.552223 -1.905001,2.963335 -1.693334,1.76389 -3.739447,2.681113 l -0.635,0.352778 0.07055,0.282222 q 0.141111,1.12889 0.987779,1.481668 0.493889,0.211667 1.27,-0.141111 2.328335,-1.199445 4.868337,-4.797781 1.622779,-2.257779 2.398891,-2.681113 0.564444,-0.282222 0.776111,0 0.282223,0.211667 -0.352778,0.705556 -0.423333,0.352778 -1.128889,1.411112 -2.116669,3.386669 -3.316114,4.868337 -1.340556,1.411112 -2.681113,2.39889 -1.270001,0.917223 -2.892779,0.987779 -1.622779,0 -2.540002,-1.76389 z" />
      <path
         id="path955"
         style="font-size:70.5556px;fill:#ffffff;stroke-width:1.34378"
         d="m 96.002955,85.516437 q -1.552223,-0.493889 -1.975557,-2.257779 -0.282222,-1.411112 0.141111,-3.668891 0.987779,-4.797781 2.610558,-5.644449 0.211666,-0.07055 0.635,-0.07055 0.705556,0.07055 1.058334,0.635 0.282222,0.564445 -0.07056,1.905002 -0.846667,3.03389 -0.987778,3.810002 -0.141111,0.705556 -0.141111,2.046113 l -0.07056,1.411112 0.282223,-0.141112 q 1.199445,-0.564444 3.386667,-3.739447 1.34056,-1.975556 2.82223,-3.457224 1.12889,-1.058334 1.55222,-1.340557 0.84667,-0.352778 1.62278,-0.07055 0.84667,0.211667 1.27,1.058334 0.84667,1.693334 -0.35278,5.997226 -0.21167,0.776112 -0.14111,0.776112 0.35278,0 1.905,-1.411112 1.12889,-1.058334 2.96334,-3.245558 1.19944,-1.552223 1.69333,-1.058334 0.14111,0.141111 0.14111,0.282222 0,0.07056 -0.56444,0.635001 -1.12889,1.128889 -1.83445,2.328335 -0.635,1.128889 -2.46944,3.033891 -1.27001,1.27 -1.90501,1.76389 -0.635,0.423333 -1.41111,0.423333 -0.56444,0 -1.19944,-0.564445 -0.635,-0.564444 -0.70556,-1.552223 0,-0.705556 0.21167,-1.622779 0.70555,-2.822224 0.84666,-4.16278 0.0706,-1.12889 0.0706,-1.12889 -0.14111,-0.141111 -0.84667,0.282223 -0.635,0.423333 -1.05833,0.987778 -1.27,1.411112 -2.75167,3.810003 -0.987778,1.622778 -1.622779,2.469446 -1.27,1.481667 -2.39889,1.481667 -0.564445,0.07056 -0.705556,0 z" />
      <path
         id="path957"
         style="font-size:70.5556px;fill:#ffffff;stroke-width:1.34378"
         d="m 114.90855,93.065887 q -2.11667,-0.635001 -2.75167,-3.386669 -0.98778,-3.810003 0.35278,-10.018896 1.48166,-7.126116 3.81,-13.47612 0.0706,-0.211667 0.14111,-0.352778 0.0706,-0.211667 0.0706,-0.282222 0,-0.141112 0,-0.141112 0,0 -0.70556,0.211667 -5.64445,1.411112 -8.96056,0.987779 -3.66889,-0.49389 -4.51556,-3.316114 -0.14111,-0.352778 -0.14111,-0.987778 0,-0.987779 0.35278,-1.622779 0.28222,-0.635 0.77611,-0.635 0.56444,0 0.91722,0.987778 0.35278,1.199445 0.77611,1.693335 0.49389,0.705556 1.76389,1.199445 2.32834,0.917223 6.2089,0.352778 2.68111,-0.352778 4.09222,-0.776112 l 0.28222,-0.07056 0.635,-1.411112 q 2.75167,-6.067782 4.3039,-6.985005 1.05833,-0.635001 1.48166,0.211667 0.28223,0.564444 -0.70555,2.751668 -1.97556,4.374448 -1.905,4.515559 0.14111,0.07056 5.15056,-1.340557 5.08,-1.411112 7.90222,-2.328335 3.73945,-1.199445 5.92667,-1.693334 1.76389,-0.423334 2.46945,-0.07056 0.56444,0.282223 0.77611,0.846668 0.28222,0.635 0.0706,1.481667 -0.21167,0.776112 -0.84667,1.058334 -0.635,0.352778 -1.19945,0 -0.49389,-0.352778 -0.49389,-1.270001 0,-0.564444 -0.21166,-0.635 -0.70556,-0.211667 -2.39889,0.141111 -1.69334,0.352778 -8.25501,2.469446 -3.03389,0.987779 -5.08,1.622779 -4.02167,1.199445 -4.445,1.411112 -0.0706,0.07056 -0.91723,2.328335 -3.38667,9.383895 -4.445,16.933345 -0.14111,0.705556 -0.21167,2.610557 0,1.834446 0.0706,2.540002 0.35278,2.963335 1.27,2.963335 0.28222,0 0.49389,-0.141111 1.48167,-0.635 3.10445,-2.89278 1.19944,-1.622779 3.52778,-6.491115 1.97555,-4.092225 2.68111,-5.221115 0.98778,-1.481668 1.97556,-1.481668 0.35277,0 0.49388,0.141112 0.35278,0.282222 0.21167,0.635 -0.14111,0.282223 -0.77611,0.423334 -0.49389,0.07055 -1.55222,1.622779 -1.19945,1.693334 -3.38667,6.350004 -1.27,2.822224 -2.39889,4.515558 -1.76389,2.681113 -3.03389,3.527781 -1.41112,0.917222 -2.75167,0.493889 z" />
      <path
         id="path959"
         style="font-size:70.5556px;fill:#ffffff;stroke-width:1.34378"
         d="m 131.95434,85.093104 q -0.0706,-1.12889 0.28222,-3.033891 0.42334,-1.905002 0.42334,-2.540002 0,0 -0.35278,0.423334 -0.28222,0.423333 -0.635,0.917223 -0.28222,0.493889 -0.35278,0.564444 -0.84667,1.12889 -1.83445,1.975557 -0.91722,0.705556 -1.69333,0.846667 -0.42333,0.07056 -0.91722,-0.07055 -0.91723,-0.282223 -1.48167,-1.481668 -0.56445,-1.058334 -0.35278,-2.540002 0.21167,-1.905001 0.84667,-3.810002 0.84667,-2.257779 1.69333,-3.457225 1.19945,-1.552223 2.11667,-0.776111 0.49389,0.423333 0.42333,1.270001 -0.0705,0.776111 -0.70555,2.681113 -0.84667,2.469446 -1.12889,4.16278 0,0.493889 -0.0706,0.917223 0,0.352778 0,0.564445 0,0.211667 0.0706,0.211667 0.35278,0 1.55222,-1.270001 1.19945,-1.340557 2.04611,-2.610558 0.84667,-1.340556 1.12889,-2.257779 0.70556,-1.975557 1.41112,-2.116668 0.49389,-0.141111 0.91722,0.141111 0.70555,0.493889 0.56444,1.552223 -0.28222,1.763891 -1.12889,4.727226 -0.77611,2.963335 -0.98777,4.727225 0.14111,2.328335 -0.77612,2.328335 -0.77611,0.07056 -0.98777,-1.411112 -0.0706,-0.282222 -0.0706,-0.635 z" />
      <path
         id="path961"
         style="font-size:70.5556px;fill:#ffffff;stroke-width:1.34378"
         d="m 137.17656,86.715883 q -0.635,-0.352778 -0.84667,-0.987779 -0.42333,-1.552223 1.34056,-9.101673 0.91722,-4.021669 1.62278,-4.727225 0.84666,-1.058334 1.83444,-0.635 0.42333,0.141111 0.70556,0.705556 0.35278,0.705556 -0.14111,2.187223 -0.77612,2.398891 -0.98778,3.951114 l -0.0706,0.282222 0.14111,-0.211666 q 0.14111,-0.211667 0.42334,-0.705556 1.55222,-3.175003 3.73944,-5.432782 0.98778,-0.987778 1.83445,-1.411112 2.18722,-1.12889 3.81,0.493889 0.98778,0.987779 1.12889,3.033891 0.14111,2.328335 -0.49389,2.963336 -0.77611,0.705556 -1.48167,0 -0.35277,-0.423334 -0.28222,-1.905002 0.14111,-2.540001 -0.635,-3.104446 -0.21166,-0.141111 -0.70555,-0.141111 -0.49389,0 -0.77612,0.141111 -0.84666,0.493889 -1.69333,1.552223 -3.10445,3.739447 -4.445,8.325561 -0.91723,3.104447 -1.76389,4.162781 -0.42334,0.423333 -1.12889,0.635 -0.635,0.141111 -1.12889,-0.07055 z" />
      <path
         id="path963"
         style="font-size:70.5556px;fill:#ffffff;stroke-width:1.34378"
         d="m 155.78891,79.942545 q 1.05833,-0.705556 1.97555,-1.622779 1.97556,-1.975557 1.97556,-3.598336 0,-0.423334 -0.14111,-0.493889 -0.14111,-0.07056 -0.635,0.141111 -0.56445,0.282222 -1.48167,1.411112 -1.05833,1.340557 -1.62278,2.398891 -0.77611,1.552223 -0.77611,2.046112 0,0.07056 0.70556,-0.282222 z m -3.45723,5.362226 q -0.70556,-1.340557 -0.70556,-3.245558 0,-3.668892 2.25778,-6.985005 1.19945,-1.693334 2.96334,-2.540002 1.19944,-0.564444 2.18722,-0.493889 1.05834,0.07056 1.76389,0.776112 0.42334,0.423333 0.56445,0.917223 0.42333,1.27 -0.21167,2.822224 -0.56444,1.552223 -1.905,2.963335 -1.69333,1.76389 -3.73945,2.681113 l -0.635,0.352778 0.0706,0.282222 q 0.14111,1.12889 0.98778,1.481668 0.49389,0.211667 1.27,-0.141111 2.32833,-1.199445 4.86833,-4.797781 1.62278,-2.257779 2.39889,-2.681113 0.56445,-0.282222 0.77612,0 0.28222,0.211667 -0.35278,0.705556 -0.42334,0.352778 -1.12889,1.411112 -2.11667,3.386669 -3.31612,4.868337 -1.34055,1.411112 -2.68111,2.39889 -1.27,0.917223 -2.89278,0.987779 -1.62278,0 -2.54,-1.76389 z" />
    </g>
  </g>
</svg>
